<?xml version="1.0" standalone="no"?><!DOCTYPE svg PUBLIC "-//W3C//DTD SVG 1.1//EN" "http://www.w3.org/Graphics/SVG/1.1/DTD/svg11.dtd"><svg t="1714034711751" class="icon" viewBox="0 0 1024 1024" version="1.1" xmlns="http://www.w3.org/2000/svg" p-id="1107" xmlns:xlink="http://www.w3.org/1999/xlink" width="200" height="200"><path d="M917.333333 362.666667a21.333333 21.333333 0 0 1-21.333333 21.333333H128a21.333333 21.333333 0 0 1-21.333333-21.333333V128a21.333333 21.333333 0 0 1 21.333333-21.333333h768a21.333333 21.333333 0 0 1 21.333333 21.333333v234.666667z" fill="#62B600" p-id="1108"></path><path d="M874.666667 234.666667v64h-106.666667v42.666666h-42.666667v-42.666666h-42.666666v-64h-42.666667v64h-42.666667v42.666666h-42.666666v-42.666666h-42.666667v85.333333h-42.666667v-85.333333h-42.666666v42.666666h-42.666667v-106.666666h-42.666667v149.333333h-42.666666v-42.666667h-85.333334v-42.666666H170.666667v42.666666H106.666667v554.666667a21.333333 21.333333 0 0 0 21.333333 21.333333h768a21.333333 21.333333 0 0 0 21.333333-21.333333V234.666667h-42.666666z" fill="#664021" p-id="1109"></path><path d="M192 512h128v42.666667H192z" fill="#BD7F47" p-id="1110"></path><path d="M298.666667 384h128v42.666667h-128z" fill="#543319" p-id="1111"></path><path d="M362.666667 682.666667h128v42.666666h-128z" fill="#C48F53" p-id="1112"></path><path d="M448 682.666667h42.666667v128h-42.666667z" fill="#C48F53" p-id="1113"></path><path d="M640 341.333333h128v42.666667h-128z" fill="#C48F53" p-id="1114"></path><path d="M725.333333 341.333333h42.666667v128h-42.666667z" fill="#C48F53" p-id="1115"></path><path d="M789.333333 682.666667h128v42.666666h-128z" fill="#C48F53" p-id="1116"></path><path d="M874.666667 682.666667h42.666666v128h-42.666666z" fill="#C48F53" p-id="1117"></path><path d="M469.333333 554.666667h128v42.666666h-128z" fill="#543319" p-id="1118"></path><path d="M597.333333 512h42.666667v85.333333h-42.666667z" fill="#BD7F47" p-id="1119"></path><path d="M682.666667 554.666667h128v42.666666h-128z" fill="#784C28" p-id="1120"></path><path d="M768 554.666667h42.666667v128h-42.666667z" fill="#784C28" p-id="1121"></path><path d="M362.666667 426.666667h128v42.666666h-128zM234.666667 682.666667h128v42.666666h-128zM298.666667 725.333333h128v42.666667h-128zM874.666667 554.666667h42.666666v128h-42.666666zM725.333333 597.333333h42.666667v42.666667h-42.666667z" fill="#543319" p-id="1122"></path><path d="M533.333333 384h128v42.666667h-128z" fill="#784C28" p-id="1123"></path><path d="M618.666667 384h42.666666v128h-42.666666z" fill="#784C28" p-id="1124"></path><path d="M576 426.666667h42.666667v42.666666h-42.666667z" fill="#543319" p-id="1125"></path><path d="M170.666667 341.333333h128v42.666667H170.666667z" fill="#784C28" p-id="1126"></path><path d="M256 341.333333h42.666667v128h-42.666667z" fill="#784C28" p-id="1127"></path><path d="M213.333333 384h42.666667v42.666667h-42.666667z" fill="#543319" p-id="1128"></path><path d="M490.666667 384h42.666666v85.333333h-42.666666z" fill="#BD7F47" p-id="1129"></path><path d="M320 469.333333h42.666667v85.333334h-42.666667zM512 834.069333h155.370667v44.522667H512zM139.989333 812.501333H213.333333v43.136H139.989333z" fill="#543319" p-id="1130"></path><path d="M161.322667 639.530667H234.666667V682.666667H161.322667zM667.328 789.098667h73.344v43.136h-73.344z" fill="#C48F53" p-id="1131"></path><path d="M384 170.666667h170.666667v85.333333h-170.666667z" fill="#92C849" p-id="1132"></path><path d="M384 170.666667h170.666667v85.333333h-170.666667z" fill="#92C849" p-id="1133"></path><path d="M554.666667 128h170.666666v42.666667h-170.666666z" fill="#429300" p-id="1134"></path><path d="M250.709333 576v-64.128c0-5.290667 0.32-11.648 0.938667-19.072h-0.32a59.2 59.2 0 0 1-2.88 9.749333L216.533333 576h-6.933333l-31.872-72.874667a66.176 66.176 0 0 1-2.88-10.304h-0.384c0.426667 4.501333 0.618667 11.050667 0.618667 19.626667V576h-11.946667v-96.810667h16.938667l28.565333 66.368c2.176 5.077333 3.605333 9.045333 4.309333 11.882667h0.448c2.176-5.952 3.690667-10.005333 4.565334-12.117333l29.056-66.133334h16.128V576h-12.437334zM310.037333 489.749333h-9.322666v75.690667h9.322666V576h-31.125333v-10.56h9.322667v-75.690667h-9.322667v-10.56h31.125333v10.56zM404.906667 576h-14.805334l-48.682666-75.306667a37.461333 37.461333 0 0 1-3.306667-6.314666h-0.384c0.341333 2.176 0.490667 6.677333 0.490667 13.568V576h-12.373334v-96.810667h15.68l47.381334 74.005334c2.24 3.498667 3.584 5.738667 4.010666 6.677333h0.256a106.944 106.944 0 0 1-0.618666-14.122667v-66.56h12.373333V576zM481.962667 576h-52.053334v-96.810667h49.877334v11.114667h-37.376v30.997333h34.624v11.072h-34.624v32.554667h39.552V576zM566.528 572.010667c-7.125333 3.754667-16.064 5.632-26.816 5.632-13.866667 0-24.96-4.416-33.258667-13.205334-8.298667-8.832-12.437333-20.48-12.437333-34.986666 0-15.573333 4.672-28.117333 13.994667-37.632s21.184-14.250667 35.562666-14.250667c9.258667 0 16.896 1.322667 22.933334 3.946667v13.056a46.208 46.208 0 0 0-22.805334-5.76c-10.794667 0-19.584 3.584-26.368 10.773333s-10.197333 16.896-10.197333 29.098667c0 11.584 3.157333 20.778667 9.493333 27.605333 6.336 6.784 14.634667 10.218667 24.874667 10.218667 9.578667 0 17.92-2.176 25.002667-6.506667v12.010667zM656.597333 576h-14.741333l-16.064-26.88c-3.2-5.376-6.144-9.045333-8.810667-10.965333a15.658667 15.658667 0 0 0-9.557333-2.922667h-9.024V576h-12.501333v-96.810667h29.504c9.408 0 16.789333 2.261333 22.122666 6.805334s8 10.901333 8 19.072c0 13.418667-7.168 22.122667-21.504 26.133333v0.32c2.666667 1.130667 4.970667 2.730667 6.912 4.821333s4.437333 5.653333 7.530667 10.688l18.133333 28.970667z m-58.197333-85.866667v34.197334h14.741333c5.717333 0 10.346667-1.664 13.909334-4.992s5.333333-7.701333 5.333333-13.12c0-5.034667-1.621333-8.981333-4.885333-11.818667s-7.978667-4.245333-14.186667-4.245333h-14.912zM745.536 576H731.733333l-9.877333-26.496h-40.32L672.213333 576h-13.802666l36.885333-96.810667h13.376L745.536 576z m-27.562667-37.44l-14.634666-40.256a46.613333 46.613333 0 0 1-1.493334-6.741333h-0.32a36.693333 36.693333 0 0 1-1.557333 6.741333l-14.506667 40.256h32.512zM809.408 490.304h-37.376v32.384h34.624v11.008h-34.624V576h-12.501333v-96.810667h49.877333v11.114667zM886.976 490.304h-27.946667V576h-12.565333v-85.696h-27.818667v-11.114667h68.309334v11.114667z" fill="#FFFFFF" p-id="1135"></path></svg>