<svg class="icon" viewBox="0 0 1024 1024" xmlns="http://www.w3.org/2000/svg" width="200" height="200"><path d="M917.333 362.667A21.333 21.333 0 0 1 896 384H128a21.333 21.333 0 0 1-21.333-21.333V128A21.333 21.333 0 0 1 128 106.667h768A21.333 21.333 0 0 1 917.333 128v234.667z" fill="#62B600"/><path d="M874.667 234.667v64H768v42.666h-42.667v-42.666h-42.666v-64H640v64h-42.667v42.666h-42.666v-42.666H512V384h-42.667v-85.333h-42.666v42.666H384V234.667h-42.667V384h-42.666v-42.667h-85.334v-42.666h-42.666v42.666h-64V896A21.333 21.333 0 0 0 128 917.333h768A21.333 21.333 0 0 0 917.333 896V234.667h-42.666z" fill="#664021"/><path d="M192 512h128v42.667H192z" fill="#BD7F47"/><path d="M298.667 384h128v42.667h-128z" fill="#543319"/><path d="M362.667 682.667h128v42.666h-128z" fill="#C48F53"/><path d="M448 682.667h42.667v128H448zM640 341.333h128V384H640z" fill="#C48F53"/><path d="M725.333 341.333H768v128h-42.667zM789.333 682.667h128v42.666h-128z" fill="#C48F53"/><path d="M874.667 682.667h42.666v128h-42.666z" fill="#C48F53"/><path d="M469.333 554.667h128v42.666h-128z" fill="#543319"/><path d="M597.333 512H640v85.333h-42.667z" fill="#BD7F47"/><path d="M682.667 554.667h128v42.666h-128z" fill="#784C28"/><path d="M768 554.667h42.667v128H768z" fill="#784C28"/><path d="M362.667 426.667h128v42.666h-128zm-128 256h128v42.666h-128zm64 42.666h128V768h-128zm576-170.666h42.666v128h-42.666zm-149.334 42.666H768V640h-42.667z" fill="#543319"/><path d="M533.333 384h128v42.667h-128z" fill="#784C28"/><path d="M618.667 384h42.666v128h-42.666z" fill="#784C28"/><path d="M576 426.667h42.667v42.666H576z" fill="#543319"/><path d="M170.667 341.333h128V384h-128z" fill="#784C28"/><path d="M256 341.333h42.667v128H256z" fill="#784C28"/><path d="M213.333 384H256v42.667h-42.667z" fill="#543319"/><path d="M490.667 384h42.666v85.333h-42.666z" fill="#BD7F47"/><path d="M320 469.333h42.667v85.334H320zM512 834.07h155.37v44.523H512zm-372.01-21.568h73.343v43.136H139.99z" fill="#543319"/><path d="M161.323 639.53h73.344v43.137h-73.344zM667.328 789.1h73.344v43.136h-73.344z" fill="#C48F53"/><path d="M384 170.667h170.667V256H384z" fill="#92C849"/><path d="M384 170.667h170.667V256H384z" fill="#92C849"/><path d="M554.667 128h170.666v42.667H554.667z" fill="#429300"/><path d="M250.71 576v-64.128c0-5.29.32-11.648.938-19.072h-.32a59.2 59.2 0 0 1-2.88 9.75L216.533 576H209.6l-31.872-72.875a66.176 66.176 0 0 1-2.88-10.304h-.384c.427 4.502.619 11.051.619 19.627V576h-11.947v-96.81h16.939l28.565 66.367c2.176 5.078 3.605 9.046 4.31 11.883h.447c2.176-5.952 3.691-10.005 4.566-12.117l29.056-66.134h16.128V576h-12.438zm59.327-86.25h-9.322v75.69h9.322V576h-31.125v-10.56h9.323v-75.69h-9.323v-10.56h31.125v10.56zm94.87 86.25H390.1l-48.682-75.307a37.461 37.461 0 0 1-3.307-6.314h-.384c.341 2.176.49 6.677.49 13.568V576h-12.373v-96.81h15.68l47.382 74.005c2.24 3.498 3.584 5.738 4.01 6.677h.256a106.944 106.944 0 0 1-.618-14.123v-66.56h12.373V576zm77.056 0h-52.054v-96.81h49.878v11.114H442.41v30.997h34.624v11.072H442.41v32.555h39.552V576zm84.565-3.99c-7.125 3.755-16.064 5.633-26.816 5.633-13.867 0-24.96-4.416-33.259-13.206-8.298-8.832-12.437-20.48-12.437-34.986 0-15.574 4.672-28.118 13.995-37.632s21.184-14.251 35.562-14.251c9.259 0 16.896 1.323 22.934 3.947v13.056a46.208 46.208 0 0 0-22.806-5.76c-10.794 0-19.584 3.584-26.368 10.773s-10.197 16.896-10.197 29.099c0 11.584 3.157 20.778 9.493 27.605 6.336 6.784 14.635 10.219 24.875 10.219 9.579 0 17.92-2.176 25.003-6.507v12.01zm90.07 3.99h-14.742l-16.064-26.88c-3.2-5.376-6.144-9.045-8.81-10.965a15.659 15.659 0 0 0-9.558-2.923H598.4V576h-12.501v-96.81h29.504c9.408 0 16.789 2.26 22.122 6.805s8 10.901 8 19.072c0 13.418-7.168 22.122-21.504 26.133v.32c2.667 1.13 4.971 2.73 6.912 4.821s4.438 5.654 7.531 10.688L656.597 576zM598.4 490.133v34.198h14.741c5.718 0 10.347-1.664 13.91-4.992s5.333-7.702 5.333-13.12c0-5.035-1.621-8.982-4.885-11.819s-7.979-4.245-14.187-4.245H598.4zM745.536 576h-13.803l-9.877-26.496h-40.32L672.213 576h-13.802l36.885-96.81h13.376L745.536 576zm-27.563-37.44-14.634-40.256a46.613 46.613 0 0 1-1.494-6.741h-.32a36.693 36.693 0 0 1-1.557 6.741l-14.507 40.256h32.512zm91.435-48.256h-37.376v32.384h34.624v11.008h-34.624V576h-12.501v-96.81h49.877v11.114zm77.568 0h-27.947V576h-12.565v-85.696h-27.819v-11.115h68.31v11.115z" fill="#FFF"/></svg>